#!OML:ASF H:\Terrain\Patient Classification 1\Walking\liu\liu.ASF
:FULLY-SPECIFIED
:DEGREES
162
root 8.243050 16.573400 -14.155800 7.992930 9.798570 -0.533006
lowerback -49.068497 -22.076599 -9.276620
upperback -19.957401 -29.382801 35.862099
thorax 9.304680 -14.584599 40.471001
lowerneck -188.630005 -69.842300 -150.363998
upperneck 150.361008 -83.820602 147.912003
head 91.310394 -33.792900 64.547501
rclavicle 0.000000 -0.000000
rhumerus -454.916992 81.635506 -813.117004
rradius 330.742981
rwrist -176.136002
rhand -275.778992 -297.045990
rfingers 71.250198
rthumb -9.782650 -596.820984
lclavicle 0.000000 -0.000000
lhumerus -438.620972 -102.201996 958.414978
lradius 239.319000
lwrist -1.033630
lhand -12.620100 -178.470993
lfingers 71.250198
lthumb 243.809998 106.218002
rfemur -301.552002 14.333500 231.566010
rtibia 318.799988
rfoot -121.001999 -1.613600
rtoes -135.362991
lfemur -41.836300 79.964699 -139.494003
ltibia 526.421021
lfoot 24.877501 125.705994
ltoes -161.369995
163
root 8.229260 16.610701 -14.033900 8.168140 9.686500 -0.720423
lowerback -50.228600 -20.331600 -7.323970
upperback -19.901901 -27.153900 35.891701
thorax 9.747170 -13.475600 39.497101
lowerneck -185.996002 -70.272102 -151.065002
upperneck 146.736008 -84.725502 150.358002
head 89.929802 -34.143402 65.346199
rclavicle 0.000000 -0.000000
rhumerus -452.085999 86.517494 -815.252991
rradius 332.742004
rwrist -181.264984
rhand -280.664001 -287.821991
rfingers 71.250198
rthumb -14.500600 -587.570007
lclavicle 0.000000 -0.000000
lhumerus -444.565002 -111.407005 964.024963
lradius 248.871002
lwrist 13.558800
lhand -4.543730 -178.335999
lfingers 71.250198
lthumb 251.550995 105.290001
rfemur -294.704010 12.332800 235.450989
rtibia 310.437988
rfoot -124.074005 2.623090
rtoes -149.460007
lfemur -58.701900 80.704605 -140.811005
ltibia 542.524963
lfoot 25.101299 131.914993
ltoes -105.354004
164
root 8.224850 16.642700 -13.904400 7.930250 9.521380 -0.974710
lowerback -49.405197 -18.340599 -3.379850
upperback -17.637199 -24.720400 34.919098
thorax 11.230299 -12.299400 36.396599
lowerneck -187.229004 -71.051201 -146.597992
upperneck 145.635010 -86.375198 148.481995
head 89.744797 -34.783501 63.591000
rclavicle 0.000000 -0.000000
rhumerus -449.958008 90.137901 -816.686035
rradius 338.354980
rwrist -185.511002
rhand -282.748993 -274.937012
rfingers 71.250198
rthumb -16.513899 -574.670959
lclavicle 0.000000 -0.000000
lhumerus -449.552979 -121.554001 967.778992
lradius 258.721985
lwrist 31.531200
lhand -6.231250 -182.886993
lfingers 71.250198
lthumb 249.934006 100.964005
rfemur -283.440002 12.050000 239.430008
rtibia 303.092987
rfoot -128.106003 6.191380
rtoes -149.684006
lfemur -70.065697 81.338799 -141.501999
ltibia 555.700989
lfoot 52.478298 136.031006
ltoes 22.275400
165
root 8.219640 16.669600 -13.775200 7.575640 9.277810 -1.093180
lowerback -45.803902 -16.122200 -2.019330
upperback -16.472300 -21.798100 34.877899
thorax 10.172000 -10.839601 35.847900
lowerneck -186.444000 -72.107300 -145.694000
upperneck 145.916000 -87.917206 146.920990
head 89.820206 -35.627399 62.635498
rclavicle -0.000000 0.000000
rhumerus -451.633972 96.226799 -816.378052
rradius 349.230011
rwrist -190.166000
rhand -283.184998 -266.449005
rfingers 71.250198
rthumb -16.935200 -566.179016
lclavicle -0.000000 0.000000
lhumerus -454.628967 -127.220001 971.754028
lradius 266.378998
lwrist 43.516201
lhand -8.287519 -186.385986
lfingers 71.250198
lthumb 247.963013 97.738708
rfemur -271.207001 12.812400 241.873001
rtibia 296.589996
rfoot -131.264008 8.482330
rtoes -147.225998
lfemur -80.245895 81.789902 -143.492004
ltibia 566.922974
lfoot 17.368200 131.541000
ltoes -134.445999
